HIERARCHY
ROOT Hips
{
 OFFSET 0.000000 0.000000 0.000000
 CHANNELS 6 Xposition Yposition Zposition Yrotation Xrotation Zrotation
 JOINT Chest
 {
  OFFSET 0.000000 9.585900 0.002600
  CHANNELS 3 Yrotation Xrotation Zrotation
  JOINT Chest2
  {
   OFFSET 0.000000 9.601200 -0.005300
   CHANNELS 3 Yrotation Xrotation Zrotation
   JOINT Chest3
   {
    OFFSET 0.000000 9.561800 0.000000
    CHANNELS 3 Yrotation Xrotation Zrotation
    JOINT Chest4
    {
     OFFSET 0.000000 9.552100 0.000000
     CHANNELS 3 Yrotation Xrotation Zrotation
     JOINT Neck
     {
      OFFSET 0.000000 14.453000 0.000000
      CHANNELS 3 Yrotation Xrotation Zrotation
      JOINT Head
      {
       OFFSET 0.000000 8.936500 -0.011300
       CHANNELS 3 Yrotation Xrotation Zrotation
       End Site
       {
        OFFSET 0.000000 17.073600 -0.006000
       }
      }
     }
     JOINT RightCollar
     {
      OFFSET -2.921100 9.558500 0.000000
      CHANNELS 3 Yrotation Xrotation Zrotation
      JOINT RightShoulder
      {
       OFFSET -13.519700 0.000000 0.000000
       CHANNELS 3 Yrotation Xrotation Zrotation
       JOINT RightElbow
       {
        OFFSET 0.000000 -29.696600 0.000000
        CHANNELS 3 Yrotation Xrotation Zrotation
        JOINT RightWrist
        {
         OFFSET 0.000000 -24.004700 0.000000
         CHANNELS 3 Yrotation Xrotation Zrotation
         End Site
         {
          OFFSET 0.000000 -17.728500 0.000000
         }
        }
       }
      }
     }
     JOINT LeftCollar
     {
      OFFSET 2.921100 9.558500 0.000000
      CHANNELS 3 Yrotation Xrotation Zrotation
      JOINT LeftShoulder
      {
       OFFSET 13.519700 0.000000 0.000000
       CHANNELS 3 Yrotation Xrotation Zrotation
       JOINT LeftElbow
       {
        OFFSET 0.000000 -29.696600 0.000000
        CHANNELS 3 Yrotation Xrotation Zrotation
        JOINT LeftWrist
        {
         OFFSET 0.000000 -24.004700 0.000000
         CHANNELS 3 Yrotation Xrotation Zrotation
         End Site
         {
          OFFSET 0.000000 -17.728500 0.000000
         }
        }
       }
      }
     }
    }
   }
  }
 }
 JOINT RightHip
 {
  OFFSET -7.771700 -0.012900 -0.001300
  CHANNELS 3 Yrotation Xrotation Zrotation
  JOINT RightKnee
  {
   OFFSET 0.000000 -40.869800 0.001200
   CHANNELS 3 Yrotation Xrotation Zrotation
   JOINT RightAnkle
   {
    OFFSET 0.000000 -39.717900 0.002100
    CHANNELS 3 Yrotation Xrotation Zrotation
    JOINT RightToe
    {
     OFFSET 0.000000 -4.965400 11.033500
     CHANNELS 3 Yrotation Xrotation Zrotation
     End Site
     {
      OFFSET 0.000000 -1.423100 5.872300
     }
    }
   }
  }
 }
 JOINT LeftHip
 {
  OFFSET 7.771700 -0.012900 -0.001300
  CHANNELS 3 Yrotation Xrotation Zrotation
  JOINT LeftKnee
  {
   OFFSET 0.000000 -40.869800 0.001200
   CHANNELS 3 Yrotation Xrotation Zrotation
   JOINT LeftAnkle
   {
    OFFSET 0.000000 -39.717900 0.002100
    CHANNELS 3 Yrotation Xrotation Zrotation
    JOINT LeftToe
    {
     OFFSET 0.000000 -4.965400 11.033500
     CHANNELS 3 Yrotation Xrotation Zrotation
     End Site
     {
      OFFSET 0.000000 -1.423100 5.872300
     }
    }
   }
  }
 }
}
MOTION
Frames: 9
Frame Time: 0.008333
-71.168752 48.932383 18.326228 178.687667 -32.383344 -3.668319 -0.064760 20.068120 1.814003 -0.021025 2.507891 0.200282 -0.080732 4.143429 0.355180 -0.092938 17.309141 1.447722 4.879467 22.440741 -2.249951 9.402576 6.194906 -5.353532 -1.387407 -2.004687 -4.424021 5.929257 -8.901996 -12.493394 -36.746374 -40.124525 86.693454 0.383968 -2.116562 -12.502042 0.532945 -1.193446 2.845977 -8.244022 -4.169699 12.012861 66.693656 -69.141720 -102.100046 6.865612 6.413186 14.229512 0.145423 -52.225852 -11.453686 -167.904673 81.080335 -156.605157 -26.519814 -3.703400 -1.244200 -0.127060 -11.036064 1.225937 -13.166721 -54.124268 17.154660 -71.890053 65.236950 -77.556685 30.703481 6.911078 16.358929 0.048174 -0.132330 -0.027622
-71.180083 48.941877 18.324315 178.658820 -32.353369 -3.662739 -0.068780 20.051225 1.827562 -0.043900 2.518886 0.212384 -0.076095 4.141821 0.354059 -0.095513 17.311488 1.449741 4.851808 22.393290 -2.220344 9.363209 6.096955 -5.331736 -1.408033 -2.002500 -4.431757 5.917623 -8.825091 -12.495259 -36.681000 -40.045894 86.681103 0.362570 -2.123925 -12.554225 0.549425 -1.215323 2.833855 -8.292217 -4.110676 12.014616 66.565435 -69.160783 -102.010544 6.869678 6.456997 14.270660 0.265926 -52.265969 -11.448834 -168.026051 81.105449 -156.754055 -26.602561 -3.645007 -1.209257 -0.131151 -11.024773 1.267448 -13.188157 -54.155358 17.171777 -71.910886 65.263488 -77.574444 30.690989 6.915985 16.351340 0.056123 -0.148034 -0.023977
-71.189343 48.950890 18.319428 178.597323 -32.339522 -3.664064 -0.015791 20.038409 1.864899 -0.090105 2.529497 0.235575 -0.070192 4.141854 0.353163 -0.070623 17.304969 1.427188 4.814352 22.359568 -2.153744 9.326506 6.015564 -5.312199 -1.494199 -1.968544 -4.372225 5.958845 -8.770104 -12.537411 -36.631266 -39.978207 86.674009 0.343543 -2.137255 -12.596211 0.507624 -1.228986 2.910571 -8.308217 -4.060801 11.973925 66.454924 -69.178443 -101.936816 6.870068 6.500776 14.291970 0.397414 -52.290575 -11.408626 -168.144134 81.128535 -156.895139 -26.664953 -3.586573 -1.191913 -0.139517 -11.012818 1.325862 -13.202979 -54.167149 17.221174 -71.965437 65.282619 -77.619316 30.687353 6.909029 16.327973 0.057369 -0.161744 -0.011241
-71.197012 48.961563 18.307145 178.538962 -32.369345 -3.685821 0.006699 20.072220 1.923357 -0.093467 2.525949 0.242428 -0.061336 4.146420 0.349458 -0.139929 17.328103 1.493048 4.814377 22.313895 -2.200961 9.295289 5.950205 -5.295674 -1.472828 -1.977746 -4.432378 5.981923 -8.704699 -12.565331 -36.592122 -39.928701 86.674878 0.327760 -2.154886 -12.627856 0.546815 -1.270455 2.889354 -8.326685 -4.013485 11.937393 66.357780 -69.196600 -101.876257 6.867177 6.540682 14.298570 0.507995 -52.269363 -11.347183 -168.109910 81.133432 -156.870559 -26.720181 -3.522530 -1.174853 -0.144509 -11.019498 1.382910 -13.220547 -54.130756 17.289203 -72.119477 65.265075 -77.754640 30.678051 6.853867 16.273810 0.085057 -0.147327 0.013249
-71.210824 48.968570 18.294317 178.517680 -32.387060 -3.698727 -0.013160 20.090315 1.956101 -0.098665 2.522639 0.245837 -0.026731 4.151352 0.328855 -0.209820 17.335910 1.554632 4.806594 22.286286 -2.214913 9.271174 5.899352 -5.283359 -1.458490 -1.974001 -4.472943 5.992946 -8.643337 -12.585122 -36.558182 -39.901898 86.681211 0.366862 -2.171125 -12.630225 0.574195 -1.294192 2.882990 -8.358637 -3.972452 11.926194 66.278961 -69.212103 -101.834266 6.859999 6.579300 14.294601 0.627127 -52.259531 -11.341684 -167.972689 81.121890 -156.742742 -26.772003 -3.457501 -1.152902 -0.156762 -11.032248 1.444318 -13.233699 -54.111569 17.314454 -72.198386 65.261650 -77.829251 30.660807 6.831071 16.253562 0.102894 -0.146707 0.025599
-71.227173 48.973371 18.279208 178.505491 -32.405865 -3.706948 -0.094719 20.095570 1.985375 -0.045547 2.534838 0.218220 -0.047033 4.153989 0.341719 -0.234398 17.340220 1.572830 4.795115 22.265846 -2.210019 9.250250 5.860119 -5.273056 -1.455968 -1.960508 -4.493076 6.020037 -8.609123 -12.618641 -36.536933 -39.913066 86.693356 0.353499 -2.175743 -12.637047 0.587777 -1.313220 2.893741 -8.390214 -3.939210 11.925861 66.222051 -69.221474 -101.813467 6.848887 6.619342 14.275988 0.688016 -52.250738 -11.328915 -167.789660 81.094705 -156.602421 -26.753691 -3.390820 -1.122788 -0.194677 -11.062186 1.491773 -13.240041 -54.107599 17.286793 -72.289403 65.300808 -77.912036 30.674077 6.854960 16.246807 0.102114 -0.201642 0.026940
-71.245084 48.976735 18.261307 178.509788 -32.427960 -3.717850 -0.141090 20.109844 2.001556 -0.014483 2.543171 0.201383 -0.140271 4.147732 0.403678 -0.203972 17.348562 1.537798 4.775909 22.246565 -2.183633 9.230713 5.830711 -5.263154 -1.471740 -1.939953 -4.490376 6.078345 -8.613196 -12.674095 -36.533546 -39.893215 86.690594 0.308082 -2.196113 -12.649660 0.579931 -1.331900 2.922921 -8.419397 -3.912252 11.937333 66.180531 -69.222623 -101.808278 6.836326 6.654013 14.244605 0.833629 -52.229224 -11.384959 -167.415388 81.040259 -156.226777 -26.701694 -3.344682 -1.081771 -0.209379 -11.075527 1.537369 -13.236538 -54.095814 17.264753 -72.385461 65.317576 -78.000968 30.654228 6.827679 16.235285 0.116954 -0.201980 0.034945
-71.262608 48.979743 18.240131 178.518751 -32.458028 -3.734272 -0.166257 20.135939 2.017115 -0.039068 2.540172 0.218180 -0.151406 4.148545 0.408781 -0.234059 17.350386 1.558559 4.767579 22.236069 -2.181212 9.215770 5.810207 -5.257403 -1.465284 -1.909547 -4.508424 6.044444 -8.553372 -12.675343 -36.475490 -39.950881 86.710690 0.291594 -2.270908 -12.657216 0.589186 -1.343645 2.929193 -8.447334 -3.890911 11.958846 66.148538 -69.214805 -101.813022 6.823182 6.676046 14.210371 0.963755 -52.191080 -11.439987 -167.021899 80.976406 -155.830552 -26.609474 -3.329063 -1.028081 -0.213102 -11.073922 1.564002 -13.230966 -54.078216 17.240812 -72.491312 65.332669 -78.098729 30.636257 6.801792 16.237558 0.133442 -0.205300 0.031683
-71.283360 48.981173 18.218262 178.547905 -32.476709 -3.740965 -0.217455 20.151715 2.009626 -0.106642 2.529524 0.255392 -0.109140 4.158617 0.384922 -0.296937 17.348227 1.604267 4.770288 22.232677 -2.203933 9.205920 5.795779 -5.258042 -1.433152 -1.871976 -4.549234 6.033062 -8.537150 -12.698688 -36.491511 -39.968997 86.733145 0.329998 -2.260493 -12.606451 0.619627 -1.350430 2.913124 -8.477789 -3.877311 11.986387 66.119422 -69.201898 -101.818106 6.810140 6.683578 14.171645 1.069401 -52.156530 -11.509905 -166.726203 80.923900 -155.539806 -26.570323 -3.351175 -0.964807 -0.212999 -11.043512 1.583938 -13.221147 -54.072842 17.192202 -72.557962 65.344986 -78.157873 30.633980 6.754843 16.247465 0.120609 -0.179505 0.026412
